
      <svg data-logo="logo" xmlns="http://www.w3.org/2000/svg" viewBox="0 0 237.37001037597656 42">
        <g id="logogram" transform="
    translate(0, 0.5)
    rotate(0 20.5 20.5)
    
  "><path fill-rule="evenodd" clip-rule="evenodd" d="M20.9053 40.0799C31.951 40.0799 40.9053 31.1256 40.9053 20.0799C40.9053 9.03427 31.951 0.0799561 20.9053 0.0799561C9.85956 0.0799561 0.905273 9.03427 0.905273 20.0799C0.905273 31.1256 9.85956 40.0799 20.9053 40.0799ZM27.1446 9.3968C27.4483 8.31801 26.4014 7.68008 25.4453 8.36125L12.0984 17.8695C11.0615 18.6082 11.2246 20.0799 12.3434 20.0799H15.858V20.0527H22.7078L17.1265 22.022L14.666 30.7631C14.3623 31.8419 15.4091 32.4798 16.3653 31.7986L29.7122 22.2904C30.7491 21.5517 30.5859 20.0799 29.4672 20.0799H24.1374L27.1446 9.3968Z" fill="#1B2A4A"/></g>
        <g id="logotype" transform="translate(47, 7.824999999999999)"><path fill="#000000" d="M10.76 26L7.12 26L16.61 0.80L19.83 0.80L10.76 26ZM30.47 26L26.62 26L17.55 0.80L20.95 0.80L30.47 26ZM11.92 19.04L11.92 15.95L25.43 15.95L25.43 19.04L11.92 19.04ZM41.56 26.35L41.56 26.35Q39.01 26.35 37.01 25.14Q35.02 23.93 33.88 21.84Q32.74 19.73 32.74 17.04L32.74 17.04Q32.74 14.34 33.88 12.26Q35.02 10.18 37.01 8.99Q39.01 7.80 41.53 7.80L41.53 7.80Q43.66 7.80 45.34 8.60Q47.02 9.41 48.11 10.84Q49.19 12.28 49.51 14.24L49.51 14.24L46.08 14.24Q45.73 12.66 44.55 11.72Q43.38 10.77 41.59 10.77L41.59 10.77Q40.05 10.77 38.90 11.54Q37.75 12.31 37.12 13.71Q36.48 15.11 36.48 17.04L36.48 17.04Q36.48 18.93 37.12 20.36Q37.75 21.80 38.90 22.59Q40.05 23.38 41.63 23.38L41.63 23.38Q43.34 23.38 44.55 22.45Q45.76 21.52 46.11 19.95L46.11 19.95L49.54 19.95Q49.19 21.87 48.09 23.30Q46.98 24.74 45.30 25.55Q43.63 26.35 41.56 26.35ZM67.74 26L64.21 26Q64.03 25.34 63.98 24.53Q63.93 23.73 63.93 22.57L63.93 22.57L63.75 22.57L63.75 14.06Q63.75 12.35 62.89 11.49Q62.04 10.63 60.18 10.63L60.18 10.63Q58.40 10.63 57.33 11.33Q56.26 12.03 56.09 13.33L56.09 13.33L52.62 13.33Q52.87 10.81 54.90 9.30Q56.93 7.80 60.32 7.80L60.32 7.80Q63.82 7.80 65.57 9.43Q67.32 11.05 67.32 14.20L67.32 14.20L67.32 22.57Q67.32 23.38 67.43 24.21Q67.53 25.05 67.74 26L67.74 26ZM58.05 26.35L58.05 26.35Q55.32 26.35 53.71 25.00Q52.10 23.66 52.10 21.34L52.10 21.34Q52.10 18.96 53.79 17.58Q55.49 16.20 58.68 15.71L58.68 15.71L64.56 14.76L64.56 17.32L59.24 18.16Q57.45 18.44 56.56 19.11Q55.67 19.77 55.67 21.03L55.67 21.03Q55.67 22.25 56.49 22.87Q57.31 23.48 58.89 23.48L58.89 23.48Q60.99 23.48 62.37 22.46Q63.75 21.45 63.75 19.91L63.75 19.91L64.21 22.50Q63.58 24.36 61.97 25.35Q60.36 26.35 58.05 26.35ZM88.60 26L85.14 26L85.14 21.91L85.48 22.01Q84.93 24.00 83.18 25.18Q81.43 26.35 78.98 26.35L78.98 26.35Q76.56 26.35 74.76 25.20Q72.95 24.04 71.96 21.98Q70.96 19.91 70.96 17.14L70.96 17.14Q70.96 14.34 71.98 12.24Q72.99 10.14 74.81 8.99Q76.63 7.83 79.08 7.83L79.08 7.83Q81.64 7.83 83.30 9.04Q84.96 10.25 85.48 12.42L85.48 12.42L85.00 12.49L85.00 0.80L88.60 0.80L88.60 26ZM79.89 23.30L79.89 23.30Q82.30 23.30 83.70 21.64Q85.10 19.98 85.10 17.04L85.10 17.04Q85.10 14.17 83.68 12.51Q82.27 10.84 79.85 10.84L79.85 10.84Q77.47 10.84 76.09 12.51Q74.70 14.17 74.70 17.14L74.70 17.14Q74.70 20.05 76.09 21.68Q77.47 23.30 79.89 23.30ZM101.41 26.35L101.41 26.35Q98.72 26.35 96.67 25.16Q94.62 23.97 93.47 21.87Q92.31 19.77 92.31 17.04L92.31 17.04Q92.31 14.27 93.45 12.19Q94.59 10.11 96.65 8.95Q98.72 7.80 101.38 7.80L101.38 7.80Q103.97 7.80 105.87 8.90Q107.78 10.00 108.81 11.96Q109.84 13.92 109.84 16.62L109.84 16.62Q109.84 17.04 109.83 17.41Q109.81 17.77 109.74 18.16L109.74 18.16L94.76 18.16L94.76 15.43L107.19 15.43L106.28 16.52Q106.28 13.64 104.98 12.14Q103.69 10.63 101.38 10.63L101.38 10.63Q98.89 10.63 97.44 12.33Q95.98 14.03 95.98 17.04L95.98 17.04Q95.98 20.09 97.44 21.80Q98.89 23.52 101.48 23.52L101.48 23.52Q103.06 23.52 104.21 22.87Q105.37 22.22 105.92 20.96L105.92 20.96L109.36 20.96Q108.48 23.48 106.40 24.91Q104.31 26.35 101.41 26.35ZM117.19 26L113.56 26L113.56 8.15L117.02 8.15L117.02 12.35L117.19 12.35L117.19 26ZM129.20 26L125.59 26L125.59 14.34Q125.59 12.52 124.75 11.68Q123.92 10.84 122.34 10.84L122.34 10.84Q120.87 10.84 119.70 11.53Q118.53 12.21 117.86 13.42Q117.19 14.62 117.19 16.27L117.19 16.27L116.74 12.10Q117.61 10.11 119.38 8.95Q121.15 7.80 123.36 7.80L123.36 7.80Q126.02 7.80 127.61 9.34Q129.20 10.88 129.20 13.40L129.20 13.40L129.20 26ZM141.24 26L137.63 26L137.63 14.34Q137.63 12.52 136.78 11.68Q135.92 10.84 134.34 10.84L134.34 10.84Q132.91 10.84 131.74 11.53Q130.56 12.21 129.88 13.42Q129.20 14.62 129.20 16.27L129.20 16.27L128.47 12.10Q129.38 10.11 131.21 8.95Q133.05 7.80 135.32 7.80L135.32 7.80Q138.02 7.80 139.63 9.36Q141.24 10.91 141.24 13.50L141.24 13.50L141.24 26ZM149.78 26L146.14 26L146.14 8.15L149.78 8.15L149.78 26ZM149.99 4.65L145.97 4.65L145.97 0.55L149.99 0.55L149.99 4.65ZM162.31 26.35L162.31 26.35Q159.75 26.35 157.76 25.14Q155.77 23.93 154.63 21.84Q153.49 19.73 153.49 17.04L153.49 17.04Q153.49 14.34 154.63 12.26Q155.77 10.18 157.76 8.99Q159.75 7.80 162.28 7.80L162.28 7.80Q164.41 7.80 166.09 8.60Q167.77 9.41 168.86 10.84Q169.94 12.28 170.25 14.24L170.25 14.24L166.83 14.24Q166.48 12.66 165.30 11.72Q164.13 10.77 162.34 10.77L162.34 10.77Q160.81 10.77 159.65 11.54Q158.50 12.31 157.87 13.71Q157.24 15.11 157.24 17.04L157.24 17.04Q157.24 18.93 157.87 20.36Q158.50 21.80 159.65 22.59Q160.81 23.38 162.38 23.38L162.38 23.38Q164.09 23.38 165.30 22.45Q166.51 21.52 166.86 19.95L166.86 19.95L170.29 19.95Q169.94 21.87 168.84 23.30Q167.74 24.74 166.06 25.55Q164.38 26.35 162.31 26.35ZM188.49 26L184.96 26Q184.78 25.34 184.73 24.53Q184.68 23.73 184.68 22.57L184.68 22.57L184.50 22.57L184.50 14.06Q184.50 12.35 183.64 11.49Q182.78 10.63 180.93 10.63L180.93 10.63Q179.15 10.63 178.08 11.33Q177.01 12.03 176.84 13.33L176.84 13.33L173.37 13.33Q173.62 10.81 175.65 9.30Q177.68 7.80 181.07 7.80L181.07 7.80Q184.57 7.80 186.32 9.43Q188.07 11.05 188.07 14.20L188.07 14.20L188.07 22.57Q188.07 23.38 188.18 24.21Q188.28 25.05 188.49 26L188.49 26ZM178.80 26.35L178.80 26.35Q176.06 26.35 174.46 25.00Q172.84 23.66 172.84 21.34L172.84 21.34Q172.84 18.96 174.54 17.58Q176.24 16.20 179.43 15.71L179.43 15.71L185.31 14.76L185.31 17.32L179.99 18.16Q178.20 18.44 177.31 19.11Q176.41 19.77 176.41 21.03L176.41 21.03Q176.41 22.25 177.24 22.87Q178.06 23.48 179.63 23.48L179.63 23.48Q181.74 23.48 183.12 22.46Q184.50 21.45 184.50 19.91L184.50 19.91L184.96 22.50Q184.33 24.36 182.72 25.35Q181.11 26.35 178.80 26.35Z"/></g>
        
      </svg>
    